<svg width="139" height="55" viewBox="0 0 139 55" fill="none" xmlns="http://www.w3.org/2000/svg">
<path d="M71.1811 0.385156C64.8135 1.47368 59.5102 5.08307 56.1193 10.0143L51.5985 16.5873L58.5703 21.6658L63.2246 14.8972C65.345 11.8143 68.6606 9.55425 72.6333 8.87517C80.4373 7.54137 87.8738 12.8046 89.2083 20.6078C90.5428 28.4093 85.2779 35.8434 77.4739 37.1775C73.5012 37.8563 69.6226 36.8262 66.598 34.6207C40.5169 15.6164 37.2927 13.2672 37.2539 13.2389C32.4166 9.71398 26.2149 8.07096 19.8473 9.15948C7.34035 11.2972 -1.0662 23.1677 1.07256 35.6726C3.21099 48.1757 15.0851 56.5796 27.592 54.4418C33.9599 53.3533 39.263 49.7439 42.6542 44.8127L47.1747 38.2395L40.2028 33.1612L35.5483 39.9279C33.4285 43.0127 30.1126 45.2728 26.1401 45.9516C18.3362 47.2856 10.8996 42.0224 9.56529 34.2209C8.23066 26.4177 13.4955 18.9833 21.2995 17.6495C25.2723 16.9704 29.1506 18.0008 32.1751 20.2044C33.3183 21.0374 61.2451 41.3882 61.5193 41.5881C66.3568 45.1127 72.5583 46.7558 78.9261 45.6675C91.4331 43.5298 99.8396 31.6593 97.7012 19.1563C95.5623 6.65134 83.6881 -1.75257 71.1811 0.385156Z" fill="white" fill-opacity="0.4"/>
<path d="M71.1811 0.385156C64.8135 1.47368 59.5102 5.08307 56.1193 10.0143L51.5985 16.5873L58.5703 21.6658L63.2246 14.8972C65.345 11.8143 68.6606 9.55425 72.6333 8.87517C80.4373 7.54137 87.8738 12.8046 89.2083 20.6078C90.5428 28.4093 85.2779 35.8434 77.4739 37.1775C73.5012 37.8563 69.6226 36.8262 66.598 34.6207C40.5169 15.6164 37.2927 13.2672 37.2539 13.2389C32.4166 9.71398 26.2149 8.07096 19.8473 9.15948C7.34035 11.2972 -1.0662 23.1677 1.07256 35.6726C3.21099 48.1757 15.0851 56.5796 27.592 54.4418C33.9599 53.3533 39.263 49.7439 42.6542 44.8127L47.1747 38.2395L40.2028 33.1612L35.5483 39.9279C33.4285 43.0127 30.1126 45.2728 26.1401 45.9516C18.3362 47.2856 10.8996 42.0224 9.56529 34.2209C8.23066 26.4177 13.4955 18.9833 21.2995 17.6495C25.2723 16.9704 29.1506 18.0008 32.1751 20.2044C33.3183 21.0374 61.2451 41.3882 61.5193 41.5881C66.3568 45.1127 72.5583 46.7558 78.9261 45.6675C91.4331 43.5298 99.8396 31.6593 97.7012 19.1563C95.5623 6.65134 83.6881 -1.75257 71.1811 0.385156Z" fill="url(#paint0_linear_208_183)"/>
<path d="M29.152 29.856H34.72C36.464 29.856 37.336 30.648 37.336 32.232V37.056C37.336 38.64 36.464 39.432 34.72 39.432H31.912V45H29.152V29.856ZM34.576 36.672V32.616C34.576 32.36 34.528 32.192 34.432 32.112C34.336 32.016 34.16 31.968 33.904 31.968H31.912V37.32H33.904C34.16 37.32 34.336 37.28 34.432 37.2C34.528 37.104 34.576 36.928 34.576 36.672ZM41.7289 33.216H44.2729C46.0009 33.216 46.8649 34.008 46.8649 35.592V39.888H41.7529V42.312C41.7529 42.568 41.7929 42.744 41.8729 42.84C41.9689 42.92 42.1529 42.96 42.4249 42.96H43.5289C43.7849 42.96 43.9609 42.92 44.0569 42.84C44.1529 42.744 44.2009 42.568 44.2009 42.312V41.424H46.8409V42.624C46.8409 44.208 45.9689 45 44.2249 45H41.7289C39.9849 45 39.1129 44.208 39.1129 42.624V35.592C39.1129 34.008 39.9849 33.216 41.7289 33.216ZM41.7529 38.136H44.2489V35.88C44.2489 35.624 44.2009 35.456 44.1049 35.376C44.0089 35.28 43.8329 35.232 43.5769 35.232H42.4249C42.1689 35.232 41.9929 35.28 41.8969 35.376C41.8009 35.456 41.7529 35.624 41.7529 35.88V38.136ZM53.4554 35.328H51.8474V42.168C51.8474 42.424 51.8954 42.6 51.9914 42.696C52.0874 42.776 52.2714 42.816 52.5434 42.816H53.4314V45H51.7514C50.0074 45 49.1354 44.208 49.1354 42.624V35.328H47.9594V33.216H49.1354V31.104H51.8474V33.216H53.4554V35.328ZM57.4667 33.216H60.0107C61.7387 33.216 62.6028 34.008 62.6028 35.592V39.888H57.4907V42.312C57.4907 42.568 57.5307 42.744 57.6107 42.84C57.7067 42.92 57.8907 42.96 58.1627 42.96H59.2667C59.5227 42.96 59.6987 42.92 59.7947 42.84C59.8907 42.744 59.9387 42.568 59.9387 42.312V41.424H62.5787V42.624C62.5787 44.208 61.7067 45 59.9627 45H57.4667C55.7227 45 54.8507 44.208 54.8507 42.624V35.592C54.8507 34.008 55.7227 33.216 57.4667 33.216ZM57.4907 38.136H59.9867V35.88C59.9867 35.624 59.9387 35.456 59.8427 35.376C59.7467 35.28 59.5707 35.232 59.3147 35.232H58.1627C57.9067 35.232 57.7307 35.28 57.6347 35.376C57.5387 35.456 57.4907 35.624 57.4907 35.88V38.136ZM69.4092 33.168H69.8412V35.52H68.8332C67.8252 35.52 67.3212 36.096 67.3212 37.248V45H64.6092V33.216H67.2972V34.728C67.4252 34.264 67.6732 33.888 68.0412 33.6C68.4092 33.312 68.8652 33.168 69.4092 33.168ZM83.3714 34.872H80.5874V32.52C80.5874 32.264 80.5394 32.096 80.4434 32.016C80.3474 31.92 80.1714 31.872 79.9154 31.872H78.7874C78.5314 31.872 78.3554 31.92 78.2594 32.016C78.1634 32.096 78.1154 32.264 78.1154 32.52V42.36C78.1154 42.616 78.1634 42.792 78.2594 42.888C78.3554 42.968 78.5314 43.008 78.7874 43.008H79.9154C80.1714 43.008 80.3474 42.968 80.4434 42.888C80.5394 42.792 80.5874 42.616 80.5874 42.36V40.056H83.3714V42.648C83.3714 44.232 82.4994 45.024 80.7554 45.024H77.9474C76.2034 45.024 75.3314 44.232 75.3314 42.648V32.232C75.3314 30.648 76.2034 29.856 77.9474 29.856H80.7554C82.4994 29.856 83.3714 30.648 83.3714 32.232V34.872ZM89.8306 33.216H90.5506C92.1986 33.216 93.0226 34.008 93.0226 35.592V45H90.2866V35.976C90.2866 35.72 90.2386 35.552 90.1426 35.472C90.0466 35.376 89.8706 35.328 89.6146 35.328H88.8946C88.3986 35.328 88.1506 35.592 88.1506 36.12V45H85.4386V28.944H88.1506V34.224C88.3906 33.552 88.9506 33.216 89.8306 33.216ZM97.7605 33.216H100.304C102.032 33.216 102.896 34.008 102.896 35.592V39.888H97.7845V42.312C97.7845 42.568 97.8245 42.744 97.9045 42.84C98.0005 42.92 98.1845 42.96 98.4565 42.96H99.5605C99.8165 42.96 99.9925 42.92 100.088 42.84C100.184 42.744 100.232 42.568 100.232 42.312V41.424H102.872V42.624C102.872 44.208 102 45 100.256 45H97.7605C96.0165 45 95.1445 44.208 95.1445 42.624V35.592C95.1445 34.008 96.0165 33.216 97.7605 33.216ZM97.7845 38.136H100.28V35.88C100.28 35.624 100.232 35.456 100.136 35.376C100.04 35.28 99.8645 35.232 99.6085 35.232H98.4565C98.2005 35.232 98.0245 35.28 97.9285 35.376C97.8325 35.456 97.7845 35.624 97.7845 35.88V38.136ZM109.703 33.168H110.135V35.52H109.127C108.119 35.52 107.615 36.096 107.615 37.248V45H104.903V33.216H107.591V34.728C107.719 34.264 107.967 33.888 108.335 33.6C108.703 33.312 109.159 33.168 109.703 33.168ZM115.91 33.216H116.63C118.278 33.216 119.102 34.008 119.102 35.592V45H116.366V35.976C116.366 35.72 116.318 35.552 116.222 35.472C116.126 35.376 115.95 35.328 115.694 35.328H114.974C114.478 35.328 114.23 35.592 114.23 36.12V45H111.518V33.216H114.206V34.296C114.43 33.576 114.998 33.216 115.91 33.216ZM123.792 33.216H126.504C128.2 33.216 129.048 34.008 129.048 35.592V42.624C129.048 44.208 128.2 45 126.504 45H123.792C122.08 45 121.224 44.208 121.224 42.624V35.592C121.224 34.008 122.08 33.216 123.792 33.216ZM126.384 42.312V35.904C126.384 35.648 126.336 35.48 126.24 35.4C126.144 35.304 125.96 35.256 125.688 35.256H124.584C124.312 35.256 124.128 35.304 124.032 35.4C123.936 35.48 123.888 35.648 123.888 35.904V42.312C123.888 42.568 123.936 42.744 124.032 42.84C124.128 42.92 124.312 42.96 124.584 42.96H125.688C125.96 42.96 126.144 42.92 126.24 42.84C126.336 42.744 126.384 42.568 126.384 42.312ZM132.992 33.216L134.504 42.456L136.016 33.216H138.728L136.304 45H132.704L130.28 33.216H132.992Z" fill="white"/>
<defs>
<linearGradient id="paint0_linear_208_183" x1="28.5728" y1="-164.993" x2="94.4101" y2="50.8214" gradientUnits="userSpaceOnUse">
<stop stop-color="white"/>
<stop offset="1" stop-color="#EA721C"/>
</linearGradient>
</defs>
</svg>
